<?xml version="1.0" standalone="no"?>
<!DOCTYPE svg PUBLIC "-//W3C//DTD SVG 20010904//EN"
 "http://www.w3.org/TR/2001/REC-SVG-20010904/DTD/svg10.dtd">
<svg version="1.0" xmlns="http://www.w3.org/2000/svg"
 width="100.000000pt" height="100.000000pt" viewBox="0 0 100.000000 100.000000"
 preserveAspectRatio="xMidYMid meet">
<metadata>
Created by potrace 1.11, written by Peter Selinger 2001-2013
</metadata>
<g transform="translate(0.000000,100.000000) scale(0.100000,-0.100000)"
fill="#000000" stroke="none">
<path d="M278 875 l-77 -45 -3 -81 -3 -82 -65 -36 -65 -37 -3 -94 -2 -95 67
-36 68 -35 5 -84 5 -84 77 -44 78 -43 71 39 71 40 69 -40 68 -39 78 43 78 44
5 84 5 84 67 35 68 36 0 95 0 95 -81 42 -81 43 -56 -32 c-32 -17 -62 -34 -67
-39 -6 -4 -36 6 -70 25 l-60 33 -5 84 -5 83 -75 43 c-41 23 -77 42 -80 42 -3
1 -40 -20 -82 -44z m146 -36 l57 -31 -3 -71 -3 -70 -60 -32 -60 -33 -57 35
-58 34 0 69 0 69 53 29 c28 16 57 30 63 31 6 0 36 -13 68 -30z m-138 -240 l55
-31 -3 -70 -3 -69 -58 -32 -59 -31 -56 32 -57 31 0 71 0 72 55 29 c30 16 58
29 63 29 4 0 32 -14 63 -31z m280 0 l55 -31 -3 -70 -3 -69 -57 -32 -57 -31
-58 31 -58 31 -3 70 -3 70 53 30 c29 16 59 30 66 31 7 0 37 -13 68 -30z m275
1 l60 -31 -3 -70 -3 -70 -57 -32 -58 -32 -57 32 -58 32 -3 69 -3 70 53 30 c29
17 57 31 61 31 4 1 35 -13 68 -29z m-416 -238 l50 -27 0 -73 0 -73 -57 -31
-57 -30 -58 30 -58 30 -3 70 -3 71 53 30 c29 17 60 31 68 31 8 0 38 -13 65
-28z m280 0 l50 -27 0 -73 0 -73 -57 -32 -58 -32 -57 32 -58 32 -3 70 -3 70
53 30 c29 17 60 31 68 31 8 0 38 -13 65 -28z"/>
<path d="M318 808 c-36 -21 -38 -25 -38 -70 0 -45 2 -48 40 -68 l40 -20 40 20
c38 19 40 23 40 68 0 44 -2 48 -40 70 -21 12 -40 22 -42 22 -2 0 -20 -10 -40
-22z m70 -40 c33 -33 -1 -78 -48 -63 -37 12 -20 75 20 75 9 0 21 -5 28 -12z"/>
<path d="M178 569 c-36 -18 -38 -22 -38 -67 0 -46 2 -49 40 -71 l40 -22 40 22
c38 21 40 25 40 69 0 43 -2 48 -39 68 -46 26 -37 26 -83 1z m70 -38 c18 -11
11 -51 -10 -65 -35 -22 -74 27 -48 59 14 17 38 19 58 6z"/>
<path d="M458 567 c-35 -20 -38 -26 -38 -68 0 -43 2 -47 40 -68 l40 -22 40 22
c38 21 40 25 40 69 0 43 -2 48 -39 68 -21 12 -40 22 -42 22 -2 -1 -21 -11 -41
-23z m66 -33 c24 -9 21 -61 -4 -69 -42 -13 -78 33 -48 63 13 13 28 15 52 6z"/>
<path d="M738 569 c-36 -18 -38 -22 -38 -69 0 -48 1 -50 40 -70 l41 -21 39 22
c38 22 40 25 40 71 0 45 -2 49 -40 68 -46 24 -36 24 -82 -1z m66 -35 c10 -4
16 -18 16 -35 0 -22 -6 -30 -25 -35 -15 -4 -32 -1 -40 6 -21 17 -19 57 3 63
27 7 29 7 46 1z"/>
<path d="M318 329 c-36 -18 -38 -22 -38 -67 0 -46 2 -49 40 -71 l39 -22 41 23
c38 22 40 26 40 70 0 45 -2 49 -40 68 -46 24 -36 24 -82 -1z m70 -38 c18 -11
11 -51 -10 -65 -35 -22 -74 27 -48 59 14 17 38 19 58 6z"/>
<path d="M598 329 c-36 -18 -38 -22 -38 -67 0 -44 2 -48 40 -70 l40 -23 40 23
c37 22 40 26 40 70 0 42 -3 48 -36 67 -42 25 -40 25 -86 0z m70 -38 c18 -11
11 -51 -10 -65 -23 -14 -52 3 -56 34 -4 23 12 40 38 40 8 0 21 -4 28 -9z"/>
</g>
</svg>
